<svg width="400" height="200" aria-label="A chart." style="overflow: hidden;"><defs id="_ABSTRACT_RENDERER_ID_33"><clipPath id="_ABSTRACT_RENDERER_ID_34"><rect x="67" y="38" width="267" height="124"></rect></clipPath></defs><rect x="0" y="0" width="400" height="200" stroke="none" stroke-width="0" fill="#ffffff"></rect><g><text text-anchor="start" x="67" y="22.85" font-family="Arial" font-size="11" font-weight="bold" stroke="none" stroke-width="0" fill="#000000">Mangrove Vegetation Idex</text><rect x="67" y="13.5" width="267" height="11" stroke="none" stroke-width="0" fill-opacity="0" fill="#ffffff"></rect></g><g><rect x="345" y="38" width="44" height="11" stroke="none" stroke-width="0" fill-opacity="0" fill="#ffffff"></rect><g column-id="MVI"><rect x="345" y="38" width="44" height="11" stroke="none" stroke-width="0" fill-opacity="0" fill="#ffffff"></rect><g><text text-anchor="start" x="371" y="47.35" font-family="Arial" font-size="11" stroke="none" stroke-width="0" fill="#222222">…</text><rect x="371" y="38" width="18" height="11" stroke="none" stroke-width="0" fill-opacity="0" fill="#ffffff"></rect></g><path d="M345,43.5L367,43.5" stroke="#1d6b99" stroke-width="1" fill-opacity="1" fill="none"></path><circle cx="356" cy="43.5" r="2.5" stroke="none" stroke-width="0" fill="#1d6b99"></circle></g></g><g><rect x="67" y="38" width="267" height="124" stroke="none" stroke-width="0" fill-opacity="0" fill="#ffffff"></rect><g clip-path="url(https://code.earthengine.google.com/#_ABSTRACT_RENDERER_ID_34)"><g><rect x="88" y="38" width="1" height="124" stroke="none" stroke-width="0" fill="#ebebeb"></rect><rect x="110" y="38" width="1" height="124" stroke="none" stroke-width="0" fill="#ebebeb"></rect><rect x="133" y="38" width="1" height="124" stroke="none" stroke-width="0" fill="#ebebeb"></rect><rect x="155" y="38" width="1" height="124" stroke="none" stroke-width="0" fill="#ebebeb"></rect><rect x="155" y="38" width="1" height="124" stroke="none" stroke-width="0" fill="#cccccc"></rect><rect x="177" y="38" width="1" height="124" stroke="none" stroke-width="0" fill="#ebebeb"></rect><rect x="199" y="38" width="1" height="124" stroke="none" stroke-width="0" fill="#ebebeb"></rect><rect x="222" y="38" width="1" height="124" stroke="none" stroke-width="0" fill="#ebebeb"></rect><rect x="244" y="38" width="1" height="124" stroke="none" stroke-width="0" fill="#ebebeb"></rect><rect x="244" y="38" width="1" height="124" stroke="none" stroke-width="0" fill="#cccccc"></rect><rect x="266" y="38" width="1" height="124" stroke="none" stroke-width="0" fill="#ebebeb"></rect><rect x="288" y="38" width="1" height="124" stroke="none" stroke-width="0" fill="#ebebeb"></rect><rect x="311" y="38" width="1" height="124" stroke="none" stroke-width="0" fill="#ebebeb"></rect><rect x="67" y="161" width="267" height="1" stroke="none" stroke-width="0" fill="#cccccc"></rect><rect x="67" y="100" width="267" height="1" stroke="none" stroke-width="0" fill="#cccccc"></rect><rect x="67" y="38" width="267" height="1" stroke="none" stroke-width="0" fill="#cccccc"></rect><rect x="67" y="130" width="267" height="1" stroke="none" stroke-width="0" fill="#ebebeb"></rect><rect x="67" y="69" width="267" height="1" stroke="none" stroke-width="0" fill="#ebebeb"></rect></g><g><rect x="67" y="100" width="267" height="1" stroke="none" stroke-width="0" fill="#333333"></rect></g><g><path d="M67.5,96.66709811360307C67.5,96.66709811360307,68.31346971626564,94.93305876021307,68.72019468865341,96.47559128403739C69.12691966104117,98.01812380786293,69.53364463342893,105.87026541348455,69.9403696058167,105.92229015346318C70.34709457820446,105.97431489344059,70.75383932208234,98.22702422889073,71.1605642944701,96.78759170933034C71.56728926685787,95.34815918976874,71.97401423924563,97.1874024862933,72.3807392116334,97.28554702152202C72.78746418402116,97.38369155675073,73.19420986939835,97.44746930789798,73.6009339002868,97.37646039382201C74.00765793117527,97.30545147974605,74.41438196206305,96.85087298740054,74.8211059929515,96.85949522063245C75.22783002383997,96.8681174538656,75.63457288471857,97.41633315048406,76.04129785710633,97.4282030083255C76.44802282949409,97.44007286616694,76.85474780188186,96.98614321363556,77.26147277426962,96.93072226634627C77.66819774665737,96.8753013190582,78.07494060753598,96.98511947684597,78.48166463842443,97.0956796156505C78.8883886693129,97.20623975445503,79.29511270020068,97.45349482213054,79.70183673108913,97.59408577207292C80.1085607619776,97.73467672201652,80.5153047677194,97.95132169176901,80.92202874776689,97.93923095104294C81.32875272781436,97.92714021031686,81.73547670786117,97.27010280566314,82.14220068790866,97.52154700659328C82.54892466795614,97.77299120752342,82.95566536997654,99.52387745917942,83.36239255206348,99.44792761170345C83.76911973415041,99.37197776422747,84.17584691623803,97.45128213045571,84.58257409832495,97.0658642111347C84.98930128041188,96.68044629181246,85.39602903869721,97.17092507077513,85.802756508883,97.13542014504073C86.20948397906878,97.09991521930633,86.6162158686536,96.5732202869344,87.02294554853923,96.85283312147797C87.42967522842487,97.13244595602154,87.836410557307,98.25632548515075,88.24313741269405,98.81310168992823C88.6498642680811,99.36987789470547,89.05659112346747,100.44284801095876,89.46331797885452,100.1935085006494C89.87004483424157,99.94416899034005,90.27678675362087,97.8040226330068,90.68351266750793,97.31703133582087C91.090238581395,96.83004003863493,91.49696449528275,97.3417909486171,91.90369040916981,97.27152076683271C92.31041632305687,97.20125058504955,92.71715635943757,96.55067150797917,93.12388227332463,96.89540589196987C93.5306081872117,97.24014027595933,93.93733410109945,99.30305783493858,94.34406001498651,99.33992271762408C94.75078592887357,99.37678760030957,95.15753067275145,94.86240177952672,95.56425470363992,97.11656430839065C95.97097873452839,99.37072683725384,96.37770276541616,112.8451615974193,96.78442679630461,112.8648567178831C97.19115082719307,112.8845518383469,97.59790122006814,99.40348356170387,98.00462430945662,97.2344094006069C98.4113473988451,95.06533523951008,98.81807048823426,99.43837494702207,99.22479357762272,99.8500499395787C99.6315166670112,100.26172493213545,100.03826894288555,99.6818064073092,100.44499109077472,99.70445598575556C100.8517132386639,99.7271055642019,101.25843538655306,100.55975244439732,101.66515753444224,99.98594370304657C102.07187968233141,99.41213496169588,102.47863666570296,95.59521878334982,102.88535787209284,96.26150008232014C103.29207907848271,96.9277813812917,103.6988002848719,103.37177316322762,104.10552149126175,103.9835194202623C104.51224269765163,104.59526567729698,104.91899873952389,101.27178683030587,105.32572182891235,99.93185570115494C105.73244491830083,98.59192457200334,106.13916800768999,96.55718795209452,106.54589109707845,95.94382947942572C106.95261418646693,95.3304710067569,107.359364579342,96.41920172975038,107.76608861023047,96.25171199197078C108.17281264111892,96.08422225419118,108.5795366720067,94.34224164742113,108.98626070289515,94.93889746689307C109.39298473378362,95.53555328636622,109.79973438475683,98.9696865993047,110.20645882613886,99.83175128842879C110.61318326752088,100.69381597755276,111.0199077089029,100.09960553926108,111.42663215028495,100.11138504316052C111.83335659166697,100.12316454705993,112.24010209156921,95.73248911872744,112.64682646610453,99.90242471696604C113.05355084063987,104.07236031520486,113.4602752151759,125.6979342867097,113.86699958971121,125.1309950033917C114.27372396424656,124.5640557200737,114.68046861303344,102.66516533522527,115.0871929452013,96.50031429505819C115.49391727736915,90.33546325489235,115.9006416095377,87.5664564023866,116.30736594170554,88.14141105808513C116.7140902738734,88.7163657137812,117.1208338587656,97.96388867326154,117.52755819564118,99.95022859945355C117.93428253251676,101.93656852564507,118.34100686939233,100.09662334117844,118.7477312062679,100.05963684877761C119.15445554314348,100.0226503563768,119.56119810274271,99.75572112458046,119.96792236994708,99.72830471574754C120.37464663715147,99.70088830691473,120.78137090435655,99.8559443679508,121.18809517156092,99.89513340972347C121.59481943876531,99.93432245149607,122.00156127435162,99.88669931284068,122.40828546247003,99.96343994543807C122.81500965058845,100.04018057803546,123.22173383870756,100.36704302012252,123.628458026826,100.35557819764433C124.03518221494443,100.34411337516627,124.44192315234017,100.01050541134674,124.84864731503811,99.89464469303651C125.25537147773605,99.77878397472628,125.66209564043467,97.07669882204827,126.06881980313261,99.66040754144218C126.47554396583054,102.24411626083685,126.8822836547979,115.3276325911081,127.28900797284328,115.3970992542451C127.69573229088863,115.4665659173698,128.1024566089347,103.2589237685791,128.50918092698004,100.0774037545568C128.91590524502539,96.89588374053452,129.32263881895332,96.35595493314104,129.72936744153452,96.30793727853025C130.13609606411575,96.2599196239207,130.54282569221914,99.24087059371536,130.94955330927885,99.78929582873265C131.35628092633857,100.33772106374994,131.76300854339897,95.49075806138815,132.16973616045868,99.59849729530914C132.57646377751837,103.70623652922964,132.9831974747823,124.3931065131499,133.3899244177288,124.4358412750477C133.7966513606753,124.4785760369578,134.20337830362112,104.53155971209486,134.61010524656763,99.85505707497732C135.01683218951413,95.17855443786029,135.4235676897494,97.01539152311878,135.8302939953005,96.37680287599777C136.2370203008516,95.73821422887676,136.64374660640271,96.07634132039983,137.05047291195382,96.02349716505331C137.4571992175049,95.97065300970556,137.86393638419435,95.92155532890744,138.2706620109245,96.05973824634121C138.67738763765468,96.1979211637762,139.08411326438414,97.27654130075848,139.49083889111432,96.85259503257352C139.89756451784447,96.42864876438733,140.3043036042517,92.87471540726573,140.71102845895177,93.51602594326474C141.11775331365186,94.15733647926376,141.52447816835263,99.91569868358604,141.93120302305275,100.70041722133105C142.33792787775283,101.48513575907569,142.74466887163857,98.53907762069583,143.15139303433648,98.22430582302216C143.55811719703442,97.9095340253485,143.96484135973304,98.75047857837484,144.37156552243098,98.8117508757723C144.77828968512893,98.87302317317027,145.1850257257854,98.64656261745874,145.59175582746258,98.5919363977301C145.9984859291398,98.53731017800143,147.62539366420665,98.35664988884135,148.03211686657505,98.37605244839806C148.43884006894348,98.39545500795602,148.84556327131259,98.22868970496889,149.252286473681,98.60040881505059C149.65900967604944,98.97212792513214,150.06574980375535,100.62032479928432,150.47247612907793,100.60640006826955C150.8792024544005,100.59247533725478,151.28592877972312,99.04050668778332,151.69265510504567,98.51687798593917C152.09938143036828,97.99324928409406,152.50610957843372,97.51874301674539,152.9128368151281,97.4646254993737C153.31956405182245,97.41050798200324,153.72629555821672,98.05957269105508,154.13302303028573,98.19217556791465C154.53975050235474,98.32477844477299,154.94647797442377,98.27641034616116,155.35320544649278,98.26024502569666C155.7599329185618,98.24407970523217,156.16666201942522,98.096629949496,156.57338932296557,98.09518344758725C156.98011662650595,98.09373694567849,157.386843930047,98.19660949386646,157.7935712335874,98.25156574830949C158.20029853712774,98.30652200275252,158.6070268188866,98.03024337330322,159.01375413560817,98.42492111509888C159.42048145232977,98.81959885689405,159.827208960176,100.59798043779055,160.23393608577294,100.61963233431432C160.64066321136988,100.6412842308381,161.04739033696757,98.68896131090914,161.4541174625645,98.55483352555342C161.86084458816146,98.4207057401977,162.2675722541796,99.79365820969782,162.67429964998718,99.81486645928676C163.0810270457947,99.83607470887583,163.48775920464817,98.63287377607546,163.89448583407534,98.68207931269414C164.30121246350248,98.73128484931281,164.70793909292897,100.11150062260842,165.1146657223561,100.11009383414482C165.52139235178328,100.10868704568122,165.92813152198352,101.87077216998298,166.33485801583475,98.67362397790885C166.74158450968596,95.47647578583472,167.1483110035365,81.6058124998891,167.55503749738773,80.92718959887969C167.96176399123897,80.248566697858,168.36850237717056,91.68357960809954,168.77522874015287,94.60201838111368C169.1819551031352,97.52045715412783,169.58868243868704,97.60774691629528,169.99540782910057,98.43795844624087C170.40213321951413,99.26816997618671,170.80885860992768,99.59653849788661,171.21558400034124,99.583296733334C171.6223093907548,99.57005496878138,172.0290471345839,98.50705575011948,172.43577673161712,98.35849123628746C172.84250632865036,98.20992672245545,173.24923931602382,98.72424255891478,173.65596552271748,98.69190569527312C174.06269172941114,98.65956883163146,174.46941793610478,98.1694082238216,174.8761441427984,98.16447283364833C175.28287034949207,98.15953744347628,175.6896057198004,98.60175726728056,176.09633182104633,98.66229704988037C176.50305792229227,98.72283683248018,176.9097840235375,98.70684360847675,177.31651012478343,98.5277153539531C177.72323622602937,98.34858709943067,178.12996808454469,97.65857006089885,178.53669657719894,97.5875212439181C178.94342506985322,97.51647242693737,179.3501561196207,98.01977435403381,179.75688205516246,98.10142170122253C180.16360799070424,98.18306904841003,180.57033392624604,98.105984766311,180.9770598617878,98.07740855795294C181.3837857973296,98.04883234959364,181.79053423471038,97.64761347956785,182.19725629315684,97.92996220048784C182.60397835160336,98.21231092140904,183.0107004100505,99.81669535123358,183.41742246849702,99.77149722738858C183.82414452694348,99.7262991035436,184.23090674316967,98.09398109787286,184.6376292036369,97.6587032279251C185.04435166410414,97.22342535797611,185.4510741245707,97.2003837570734,185.85779658503793,97.15976186650546C186.2645190455052,97.11913997593753,186.6712777226346,97.19919247973044,187.0780006058347,97.41497954800914C187.48472348903476,97.63076661628786,187.89144637223555,98.01582408834007,188.29816925543562,98.45449167441124C188.7048921386357,98.8931592604824,189.11164721547138,99.9620406914677,189.51837056471373,100.0470276899516C189.92509391395606,100.13201468843549,190.3318172631991,99.19893875151953,190.73854061244145,98.96445446607821C191.14526396168378,98.72997018063676,191.55201552201873,98.49742501068243,191.95873925821738,98.64011437567858C192.36546299441602,98.78280374067374,192.77218673061537,100.03157012472121,193.17891046681402,99.82058336299636C193.58563420301266,99.60959660127155,193.9923824718648,97.32984336958609,194.3991065846637,97.37414386337254C194.80583069746262,97.41844435715899,195.21255481026088,99.63447454022891,195.6192789230598,100.086338648957C196.0260030358587,100.53820275768514,196.43274799251526,100.48305019766103,196.83947253275474,100.085328498132C197.24619707299422,99.68760679860299,197.6529216132337,98.32936013325454,198.05964615347318,97.70000843523545C198.46637069371266,97.0706567372151,198.87311243891432,96.91147256312811,199.27983734539734,96.3091982818303C199.68656225188036,95.70692400053125,200.0932871583627,93.47236450500526,200.50001206484572,94.08634397162643C200.90673697132874,94.70032343824762,201.31347578281765,98.99369495949114,201.720201053661,99.99314415798551C202.12692632450432,100.99259335647997,202.53365159534698,100.16843457551587,202.94037686619032,100.08310294753863C203.34710213703366,99.99777131956141,203.7538447964316,99.50569317599738,204.16056987144256,99.48114590844717C204.56729494645356,99.45659864089684,204.9740200214652,99.85995171415837,205.3807450964762,99.93581057073312C205.78747017148717,100.01166942730792,206.19421342873756,100.02151027453333,206.60093868075066,99.93629905524574C207.0076639327638,99.85108783595818,207.41438918477692,99.41846778628312,207.82111443679003,99.42454326214485C208.22783968880316,99.4306187380067,208.63458096419677,102.06999105003133,209.04130636873282,99.97275917803347C209.44803177326887,97.87552730603532,209.8547571778049,86.8447470121972,210.26148258234096,86.8411590921973C210.668207986877,86.83757117218511,211.07494706575199,97.76738267084059,211.48167270378016,99.95138108940645C211.8883983418083,102.13537950797293,212.29512397983578,99.9636972616646,212.70184961786396,99.94529150882322C213.1085752558921,99.92688575598181,213.51531201961953,99.8217242996768,213.92203786383607,99.84094560329764C214.32876370805263,99.8601669069186,214.7354895522685,103.29834649799116,215.14221539648506,100.06061841438566C215.54894124070162,96.82289033078095,215.9556759190078,80.8827705924961,216.36240189409256,80.414432757139C216.7691278691773,79.9460949217942,217.17585384426206,94.4437288155307,217.58257981934685,97.25045337906343C217.9893057944316,100.05717794259661,218.3960434168073,98.61741139887667,218.80276906236696,97.25478017847396C219.20949470792667,95.8921489580725,219.61622035348705,88.65562412870005,220.02294599904675,89.07466610028887C220.42967164460646,89.49370807187644,220.83641276559462,97.97434966730368,221.24313853825674,99.76916875798076C221.64986431091887,101.56398784865884,222.05659008358168,100.1339537943478,222.4633158562438,99.84371405232245C222.87004162890597,99.55347431029712,224.49695436521856,96.34124071315308,224.90368402721523,96.2117264152672C225.31041368921194,96.08221211738254,225.71714717369716,96.64685092134025,226.123873013206,97.25064173987968C226.53059885271483,97.8544325584191,226.93732469222365,99.86338764400475,227.34405053173248,99.83448109033948C227.7507763712413,99.8055745366742,228.15751314061842,97.54082663129695,228.5642386506022,97.07717846391355C228.97096416058594,96.61353029653014,229.3776896705704,97.10986621802166,229.78441518055416,97.05256589814745C230.19114069053794,96.995265578272,230.59787916873668,96.68016076046608,231.0046038134826,96.73337337861133C231.41132845822852,96.78658599675535,231.81805310297446,97.28802865784809,232.22477774772037,97.37183776194547C232.6315023924663,97.45564686604285,233.03823891517007,96.55963258524206,233.4449647791581,97.23622654757794C233.85169064314616,97.91282050991383,234.25841650713352,100.86153421537502,234.66514237112156,101.43140048686183C235.0718682351096,102.00126675835,235.47860169417368,101.39980800459423,235.8853277897706,100.65541919909326C236.29205388536752,99.91103039359182,236.69877998096376,97.57972518753996,237.10550607656072,96.96506311832177C237.51223217215764,96.35040104910478,237.91895953501248,97.06290936799954,238.32568626423836,96.9674467874996C238.73241299346424,96.87198420699964,239.13914022356764,96.3289756396181,239.54586720323263,96.39228728117185C239.95259418289763,96.45559892272561,240.3593274188263,97.1836375134391,240.7660504046503,97.34731840760641C241.17277339047428,97.51099930177494,241.57949637629756,97.37831205231754,241.98621936212155,97.37438379484529C242.39294234794554,97.37045553737302,244.01987222143165,97.23726927209647,244.42660225437962,97.27311206422216C244.83333228732758,97.30895485634662,245.2400656503587,97.46445511685982,245.64679235322282,97.53880462637451C246.05351905608694,97.6131541358892,246.46024575895038,96.74050115629225,246.8669724618145,97.71921129665633C247.27369916467865,98.69792143702038,247.68043351063525,101.77178223138426,248.0871603575488,103.41110179375534C248.49388720446237,105.0504213561264,248.90061405137524,108.82834788944884,249.3073408982888,107.55516298020754C249.71406774520236,106.28197807096501,250.120799469083,97.57684826216438,250.52752648358324,95.77194362350563C250.9342534980835,93.96703898484691,251.34098051258374,96.5991870245707,251.74770752708397,96.72569128857322C252.1544345415842,96.85219555257697,252.5611637441296,96.49460966312722,252.96789084430608,96.53096884467445C253.37461794448254,96.56732802622167,253.7813450446597,96.91837608307748,254.18807214483616,96.94384605602094C254.59479924501264,96.9693160289632,255.00152801729297,96.5855912364377,255.4082547813541,96.68378839759156C255.81498154541524,96.78198555874665,256.2217083094771,97.37683333741725,256.6284350735382,97.53302852330218C257.03516183759933,97.68922370918587,257.4418971034019,97.54378631570965,257.8486240736514,97.62096014042494C258.255351043901,97.69813396514147,258.66207801415123,98.03749534840637,259.06880498440074,97.99607205454627C259.47553195465025,97.95464876068495,259.8822641944729,97.3936843876111,260.28899146506126,97.37241753040111C260.6957187356496,97.35115067318989,261.10244600623724,97.7818549951073,261.5091732768256,97.86846852494119C261.9159005474139,97.95508205477509,262.32262950987626,97.43715535901266,262.72935707421243,97.89209874785676C263.13608463854865,98.34704213669966,263.54281277437485,100.65477337984821,263.94953976722036,100.59812887939285C264.35626676006586,100.54148437893748,264.76299375291205,97.81498420688689,265.1697207457576,97.55223554734933C265.5764477386032,97.28948688781178,265.98317837222805,99.09241885224222,266.389904404744,99.02164015009511C266.79663043726003,98.95086144794813,267.20335646977674,97.86569063287907,267.6100825022927,97.12757003182062C268.0168085348088,96.38944943076343,268.423542036241,94.57383544013287,268.83026718092316,94.59290287298553C269.23699232560534,94.61197030583698,269.6437188147488,96.69871351334875,270.0504426149697,97.24195542532794C270.4571664151905,97.78519733730838,270.8638902154114,97.87632216368692,271.2706140156322,97.85236310151117C271.6773378158531,97.82840403933668,272.08408766830763,97.24735137470248,272.49081492100703,97.0981828160426C272.8975421737064,96.9490142573827,273.3042694264065,96.47237212294027,273.7109966791059,96.95733991502689C274.11772393180524,97.44230770711228,274.5244601118035,99.76076422108417,274.9311876422457,100.00801258263735C275.3379151726879,100.25526094419061,275.74464270312944,103.83444188395171,276.1513702335716,98.44085101522018C276.55809776401384,93.04726014648742,276.96483098676197,67.8911194058914,277.3715586772587,67.64631967115801C277.7782863677553,67.4015199364246,278.1850140582527,91.61381192368125,278.59174174874937,96.97191702591729C278.99846943924604,102.33002212815335,279.4051999749547,100.28453074516335,279.81192783680456,99.79495726374172C280.2186556986544,99.30538378232008,280.62538356050425,94.05567248472691,281.03211142235403,94.03448192722132C281.4388392842038,94.01329136971573,281.84556730799136,98.69036361596221,282.25229525081033,99.66781504016105C282.65902319362937,100.64526646435951,283.06575199791973,99.88725519894989,283.4724792854551,99.89919051150997C283.8792065729904,99.91112582407006,284.2859338605251,99.71182907002988,284.69266114806044,99.73942732739104C285.09938843559576,99.76702558475232,285.5061175421075,100.06225129976487,285.91284552729394,100.06478072671824C286.3195735124805,100.06731015367161,286.7263018676756,100.31892928711103,287.13302948285275,99.7546040020812C287.5397570980299,99.19027871705137,287.9464847132064,97.68083601005755,288.35321232838356,96.67882873436459C288.75993994356077,95.67682145867283,289.1666723340231,93.17843456470553,289.57339963379764,93.74254961558962C289.98012693357225,94.30666466647372,290.38685423334687,98.97673170471074,290.7935815331215,100.06350603036168C291.2003088328961,101.15028035601266,291.607042020809,100.83760173168712,292.01376881593956,100.2631964505339C292.42049561107024,99.6887911693808,292.8272224062015,95.92603313519783,293.23394920133217,96.61707547224532C293.64067599646273,97.30811780929159,294.04741013246587,103.83049379061508,294.45413646437873,104.40949439522394C294.8608627962916,104.98849499983159,295.26758912820515,100.85794214010905,295.674315460118,100.09113189697096C296.0810417920309,99.32432165383283,296.48777662097746,99.86031329383319,296.89450247460877,99.80863107987291C297.3012283282401,99.75694886591265,297.7079541818714,98.30128944267274,298.1146800355027,99.78103642448852C298.52140588913403,101.26078340630431,298.92814252199327,108.63462648448915,299.33486767138317,108.68718650809645C299.74159282077306,108.73974653170374,300.1483179701623,103.08776620256671,300.5550431195522,100.09648552424433C300.9617682689421,97.10520484592122,301.3685095255055,85.8392521179478,301.77523336244485,90.73938898400056C302.1819571993841,95.63952585005086,302.58868103632346,126.5463073623898,302.9954048732628,129.4971630725905C303.40212871020213,132.4480187828035,303.8088741234862,113.3799445394749,304.21559744354226,108.44415988874366C304.6223207635984,103.50837523801854,305.0290440836544,101.30922522252828,305.43576740371054,99.88206505707925C305.8424907237666,98.4549048916308,306.24923824600984,100.41731224907858,306.655961911596,99.88119887862413C307.0626855771822,99.3450855081697,307.4694092427691,96.65331842821435,307.8761329083553,96.66538481766241C308.28285657394144,96.67745120711047,308.6896115349727,99.8080993961047,309.0963353135388,99.95368185719312C309.503059092105,100.09926431828154,309.9097828706718,97.94469910307551,310.3165066492379,97.53896331267448C310.723230427804,97.13322752227222,311.1299827884134,97.14815526058744,311.53670676940214,97.51926665014246C311.94343075039086,97.89037803969624,312.35015473137963,99.37707503270336,312.75687871236835,99.76563119515922C313.1636026933571,100.15418735761494,313.57035379235685,99.89875516422995,313.97707607582197,99.8506053951525C314.3837983592871,99.80245562607517,314.7905206427522,100.01674537552083,315.1972429262173,99.47673470561548C315.60396520968237,98.93672403571,316.01071877917707,97.11965161190108,316.41744296164654,96.61046342349316C316.8241671441159,96.10127523508648,317.23089132658606,95.89748376969555,317.6376155090555,96.42154100533033C318.0443396915249,96.94559824096388,318.4510831154207,99.7233750721628,318.8578073251938,99.75485947558671C319.264531534967,99.78634387901074,319.6712557447401,97.07957618017846,320.07797995451324,96.61049984040082C320.4847041642864,96.14142350062318,320.8914443673118,96.47062980215824,321.2981685253027,96.94040574706275C321.7048926832936,97.41018169196728,322.1116168412839,100.70032293052304,322.51834099927476,99.42915986196991C322.92506515726564,98.15799679341676,323.3318046824114,89.73907014017465,323.73852843744027,89.31330327641354C324.1452521924691,88.88753641265242,324.551975947498,95.61755411450105,324.95869970252687,96.8744245979153C325.3654234575557,98.13129508132954,325.77217074630687,96.34823238015946,326.17889427255136,96.85452579684379C326.58561779879585,97.36081921352812,326.99234132504034,99.89571889864132,327.3990648512848,99.9121847067751C327.80578837752927,99.92865051490888,328.2125348622396,96.91802124412035,328.6192580994439,96.95326567321005C329.0259813366483,96.98851010230099,329.43270457385194,100.18000069266044,329.83942781105634,100.1235942061478C330.2461510482607,100.0671877196351,330.6529082528844,97.12333774621648,331.0596308376296,96.61473095233774C331.46635342237477,96.10612415846023,331.87307600711927,96.53941247886334,332.27979859186445,97.07185201237048C332.68652117660963,97.60429154587762,333.5,99.80944365783327,333.5,99.80944365783327" stroke="#1d6b99" stroke-width="1" fill-opacity="1" fill="none"></path></g></g><g><circle cx="67.5" cy="96.66709811360307" r="2.5" stroke="none" stroke-width="0" fill="#1d6b99"></circle><circle cx="68.72019468865341" cy="96.47559128403739" r="2.5" stroke="none" stroke-width="0" fill="#1d6b99"></circle><circle cx="69.9403696058167" cy="105.92229015346318" r="2.5" stroke="none" stroke-width="0" fill="#1d6b99"></circle><circle cx="71.1605642944701" cy="96.78759170933034" r="2.5" stroke="none" stroke-width="0" fill="#1d6b99"></circle><circle cx="72.3807392116334" cy="97.28554702152202" r="2.5" stroke="none" stroke-width="0" fill="#1d6b99"></circle><circle cx="73.6009339002868" cy="97.37646039382201" r="2.5" stroke="none" stroke-width="0" fill="#1d6b99"></circle><circle cx="74.8211059929515" cy="96.85949522063245" r="2.5" stroke="none" stroke-width="0" fill="#1d6b99"></circle><circle cx="76.04129785710633" cy="97.4282030083255" r="2.5" stroke="none" stroke-width="0" fill="#1d6b99"></circle><circle cx="77.26147277426962" cy="96.93072226634627" r="2.5" stroke="none" stroke-width="0" fill="#1d6b99"></circle><circle cx="78.48166463842443" cy="97.0956796156505" r="2.5" stroke="none" stroke-width="0" fill="#1d6b99"></circle><circle cx="79.70183673108913" cy="97.59408577207292" r="2.5" stroke="none" stroke-width="0" fill="#1d6b99"></circle><circle cx="80.92202874776689" cy="97.93923095104294" r="2.5" stroke="none" stroke-width="0" fill="#1d6b99"></circle><circle cx="82.14220068790866" cy="97.52154700659328" r="2.5" stroke="none" stroke-width="0" fill="#1d6b99"></circle><circle cx="83.36239255206348" cy="99.44792761170345" r="2.5" stroke="none" stroke-width="0" fill="#1d6b99"></circle><circle cx="84.58257409832495" cy="97.0658642111347" r="2.5" stroke="none" stroke-width="0" fill="#1d6b99"></circle><circle cx="85.802756508883" cy="97.13542014504073" r="2.5" stroke="none" stroke-width="0" fill="#1d6b99"></circle><circle cx="87.02294554853923" cy="96.85283312147797" r="2.5" stroke="none" stroke-width="0" fill="#1d6b99"></circle><circle cx="88.24313741269405" cy="98.81310168992823" r="2.5" stroke="none" stroke-width="0" fill="#1d6b99"></circle><circle cx="89.46331797885452" cy="100.1935085006494" r="2.5" stroke="none" stroke-width="0" fill="#1d6b99"></circle><circle cx="90.68351266750793" cy="97.31703133582087" r="2.5" stroke="none" stroke-width="0" fill="#1d6b99"></circle><circle cx="91.90369040916981" cy="97.27152076683271" r="2.5" stroke="none" stroke-width="0" fill="#1d6b99"></circle><circle cx="93.12388227332463" cy="96.89540589196987" r="2.5" stroke="none" stroke-width="0" fill="#1d6b99"></circle><circle cx="94.34406001498651" cy="99.33992271762408" r="2.5" stroke="none" stroke-width="0" fill="#1d6b99"></circle><circle cx="95.56425470363992" cy="97.11656430839065" r="2.5" stroke="none" stroke-width="0" fill="#1d6b99"></circle><circle cx="96.78442679630461" cy="112.8648567178831" r="2.5" stroke="none" stroke-width="0" fill="#1d6b99"></circle><circle cx="98.00462430945662" cy="97.2344094006069" r="2.5" stroke="none" stroke-width="0" fill="#1d6b99"></circle><circle cx="99.22479357762272" cy="99.8500499395787" r="2.5" stroke="none" stroke-width="0" fill="#1d6b99"></circle><circle cx="100.44499109077472" cy="99.70445598575556" r="2.5" stroke="none" stroke-width="0" fill="#1d6b99"></circle><circle cx="101.66515753444224" cy="99.98594370304657" r="2.5" stroke="none" stroke-width="0" fill="#1d6b99"></circle><circle cx="102.88535787209284" cy="96.26150008232014" r="2.5" stroke="none" stroke-width="0" fill="#1d6b99"></circle><circle cx="104.10552149126175" cy="103.9835194202623" r="2.5" stroke="none" stroke-width="0" fill="#1d6b99"></circle><circle cx="105.32572182891235" cy="99.93185570115494" r="2.5" stroke="none" stroke-width="0" fill="#1d6b99"></circle><circle cx="106.54589109707845" cy="95.94382947942572" r="2.5" stroke="none" stroke-width="0" fill="#1d6b99"></circle><circle cx="107.76608861023047" cy="96.25171199197078" r="2.5" stroke="none" stroke-width="0" fill="#1d6b99"></circle><circle cx="108.98626070289515" cy="94.93889746689307" r="2.5" stroke="none" stroke-width="0" fill="#1d6b99"></circle><circle cx="110.20645882613886" cy="99.83175128842879" r="2.5" stroke="none" stroke-width="0" fill="#1d6b99"></circle><circle cx="111.42663215028495" cy="100.11138504316052" r="2.5" stroke="none" stroke-width="0" fill="#1d6b99"></circle><circle cx="112.64682646610453" cy="99.90242471696604" r="2.5" stroke="none" stroke-width="0" fill="#1d6b99"></circle><circle cx="113.86699958971121" cy="125.1309950033917" r="2.5" stroke="none" stroke-width="0" fill="#1d6b99"></circle><circle cx="115.0871929452013" cy="96.50031429505819" r="2.5" stroke="none" stroke-width="0" fill="#1d6b99"></circle><circle cx="116.30736594170554" cy="88.14141105808513" r="2.5" stroke="none" stroke-width="0" fill="#1d6b99"></circle><circle cx="117.52755819564118" cy="99.95022859945355" r="2.5" stroke="none" stroke-width="0" fill="#1d6b99"></circle><circle cx="118.7477312062679" cy="100.05963684877761" r="2.5" stroke="none" stroke-width="0" fill="#1d6b99"></circle><circle cx="119.96792236994708" cy="99.72830471574754" r="2.5" stroke="none" stroke-width="0" fill="#1d6b99"></circle><circle cx="121.18809517156092" cy="99.89513340972347" r="2.5" stroke="none" stroke-width="0" fill="#1d6b99"></circle><circle cx="122.40828546247003" cy="99.96343994543807" r="2.5" stroke="none" stroke-width="0" fill="#1d6b99"></circle><circle cx="123.628458026826" cy="100.35557819764433" r="2.5" stroke="none" stroke-width="0" fill="#1d6b99"></circle><circle cx="124.84864731503811" cy="99.89464469303651" r="2.5" stroke="none" stroke-width="0" fill="#1d6b99"></circle><circle cx="126.06881980313261" cy="99.66040754144218" r="2.5" stroke="none" stroke-width="0" fill="#1d6b99"></circle><circle cx="127.28900797284328" cy="115.3970992542451" r="2.5" stroke="none" stroke-width="0" fill="#1d6b99"></circle><circle cx="128.50918092698004" cy="100.0774037545568" r="2.5" stroke="none" stroke-width="0" fill="#1d6b99"></circle><circle cx="129.72936744153452" cy="96.30793727853025" r="2.5" stroke="none" stroke-width="0" fill="#1d6b99"></circle><circle cx="130.94955330927885" cy="99.78929582873265" r="2.5" stroke="none" stroke-width="0" fill="#1d6b99"></circle><circle cx="132.16973616045868" cy="99.59849729530914" r="2.5" stroke="none" stroke-width="0" fill="#1d6b99"></circle><circle cx="133.3899244177288" cy="124.4358412750477" r="2.5" stroke="none" stroke-width="0" fill="#1d6b99"></circle><circle cx="134.61010524656763" cy="99.85505707497732" r="2.5" stroke="none" stroke-width="0" fill="#1d6b99"></circle><circle cx="135.8302939953005" cy="96.37680287599777" r="2.5" stroke="none" stroke-width="0" fill="#1d6b99"></circle><circle cx="137.05047291195382" cy="96.02349716505331" r="2.5" stroke="none" stroke-width="0" fill="#1d6b99"></circle><circle cx="138.2706620109245" cy="96.05973824634121" r="2.5" stroke="none" stroke-width="0" fill="#1d6b99"></circle><circle cx="139.49083889111432" cy="96.85259503257352" r="2.5" stroke="none" stroke-width="0" fill="#1d6b99"></circle><circle cx="140.71102845895177" cy="93.51602594326474" r="2.5" stroke="none" stroke-width="0" fill="#1d6b99"></circle><circle cx="141.93120302305275" cy="100.70041722133105" r="2.5" stroke="none" stroke-width="0" fill="#1d6b99"></circle><circle cx="143.15139303433648" cy="98.22430582302216" r="2.5" stroke="none" stroke-width="0" fill="#1d6b99"></circle><circle cx="144.37156552243098" cy="98.8117508757723" r="2.5" stroke="none" stroke-width="0" fill="#1d6b99"></circle><circle cx="145.59175582746258" cy="98.5919363977301" r="2.5" stroke="none" stroke-width="0" fill="#1d6b99"></circle><circle cx="148.03211686657505" cy="98.37605244839806" r="2.5" stroke="none" stroke-width="0" fill="#1d6b99"></circle><circle cx="149.252286473681" cy="98.60040881505059" r="2.5" stroke="none" stroke-width="0" fill="#1d6b99"></circle><circle cx="150.47247612907793" cy="100.60640006826955" r="2.5" stroke="none" stroke-width="0" fill="#1d6b99"></circle><circle cx="151.69265510504567" cy="98.51687798593917" r="2.5" stroke="none" stroke-width="0" fill="#1d6b99"></circle><circle cx="152.9128368151281" cy="97.4646254993737" r="2.5" stroke="none" stroke-width="0" fill="#1d6b99"></circle><circle cx="154.13302303028573" cy="98.19217556791465" r="2.5" stroke="none" stroke-width="0" fill="#1d6b99"></circle><circle cx="155.35320544649278" cy="98.26024502569666" r="2.5" stroke="none" stroke-width="0" fill="#1d6b99"></circle><circle cx="156.57338932296557" cy="98.09518344758725" r="2.5" stroke="none" stroke-width="0" fill="#1d6b99"></circle><circle cx="157.7935712335874" cy="98.25156574830949" r="2.5" stroke="none" stroke-width="0" fill="#1d6b99"></circle><circle cx="159.01375413560817" cy="98.42492111509888" r="2.5" stroke="none" stroke-width="0" fill="#1d6b99"></circle><circle cx="160.23393608577294" cy="100.61963233431432" r="2.5" stroke="none" stroke-width="0" fill="#1d6b99"></circle><circle cx="161.4541174625645" cy="98.55483352555342" r="2.5" stroke="none" stroke-width="0" fill="#1d6b99"></circle><circle cx="162.67429964998718" cy="99.81486645928676" r="2.5" stroke="none" stroke-width="0" fill="#1d6b99"></circle><circle cx="163.89448583407534" cy="98.68207931269414" r="2.5" stroke="none" stroke-width="0" fill="#1d6b99"></circle><circle cx="165.1146657223561" cy="100.11009383414482" r="2.5" stroke="none" stroke-width="0" fill="#1d6b99"></circle><circle cx="166.33485801583475" cy="98.67362397790885" r="2.5" stroke="none" stroke-width="0" fill="#1d6b99"></circle><circle cx="167.55503749738773" cy="80.92718959887969" r="2.5" stroke="none" stroke-width="0" fill="#1d6b99"></circle><circle cx="168.77522874015287" cy="94.60201838111368" r="2.5" stroke="none" stroke-width="0" fill="#1d6b99"></circle><circle cx="169.99540782910057" cy="98.43795844624087" r="2.5" stroke="none" stroke-width="0" fill="#1d6b99"></circle><circle cx="171.21558400034124" cy="99.583296733334" r="2.5" stroke="none" stroke-width="0" fill="#1d6b99"></circle><circle cx="172.43577673161712" cy="98.35849123628746" r="2.5" stroke="none" stroke-width="0" fill="#1d6b99"></circle><circle cx="173.65596552271748" cy="98.69190569527312" r="2.5" stroke="none" stroke-width="0" fill="#1d6b99"></circle><circle cx="174.8761441427984" cy="98.16447283364833" r="2.5" stroke="none" stroke-width="0" fill="#1d6b99"></circle><circle cx="176.09633182104633" cy="98.66229704988037" r="2.5" stroke="none" stroke-width="0" fill="#1d6b99"></circle><circle cx="177.31651012478343" cy="98.5277153539531" r="2.5" stroke="none" stroke-width="0" fill="#1d6b99"></circle><circle cx="178.53669657719894" cy="97.5875212439181" r="2.5" stroke="none" stroke-width="0" fill="#1d6b99"></circle><circle cx="179.75688205516246" cy="98.10142170122253" r="2.5" stroke="none" stroke-width="0" fill="#1d6b99"></circle><circle cx="180.9770598617878" cy="98.07740855795294" r="2.5" stroke="none" stroke-width="0" fill="#1d6b99"></circle><circle cx="182.19725629315684" cy="97.92996220048784" r="2.5" stroke="none" stroke-width="0" fill="#1d6b99"></circle><circle cx="183.41742246849702" cy="99.77149722738858" r="2.5" stroke="none" stroke-width="0" fill="#1d6b99"></circle><circle cx="184.6376292036369" cy="97.6587032279251" r="2.5" stroke="none" stroke-width="0" fill="#1d6b99"></circle><circle cx="185.85779658503793" cy="97.15976186650546" r="2.5" stroke="none" stroke-width="0" fill="#1d6b99"></circle><circle cx="187.0780006058347" cy="97.41497954800914" r="2.5" stroke="none" stroke-width="0" fill="#1d6b99"></circle><circle cx="188.29816925543562" cy="98.45449167441124" r="2.5" stroke="none" stroke-width="0" fill="#1d6b99"></circle><circle cx="189.51837056471373" cy="100.0470276899516" r="2.5" stroke="none" stroke-width="0" fill="#1d6b99"></circle><circle cx="190.73854061244145" cy="98.96445446607821" r="2.5" stroke="none" stroke-width="0" fill="#1d6b99"></circle><circle cx="191.95873925821738" cy="98.64011437567858" r="2.5" stroke="none" stroke-width="0" fill="#1d6b99"></circle><circle cx="193.17891046681402" cy="99.82058336299636" r="2.5" stroke="none" stroke-width="0" fill="#1d6b99"></circle><circle cx="194.3991065846637" cy="97.37414386337254" r="2.5" stroke="none" stroke-width="0" fill="#1d6b99"></circle><circle cx="195.6192789230598" cy="100.086338648957" r="2.5" stroke="none" stroke-width="0" fill="#1d6b99"></circle><circle cx="196.83947253275474" cy="100.085328498132" r="2.5" stroke="none" stroke-width="0" fill="#1d6b99"></circle><circle cx="198.05964615347318" cy="97.70000843523545" r="2.5" stroke="none" stroke-width="0" fill="#1d6b99"></circle><circle cx="199.27983734539734" cy="96.3091982818303" r="2.5" stroke="none" stroke-width="0" fill="#1d6b99"></circle><circle cx="200.50001206484572" cy="94.08634397162643" r="2.5" stroke="none" stroke-width="0" fill="#1d6b99"></circle><circle cx="201.720201053661" cy="99.99314415798551" r="2.5" stroke="none" stroke-width="0" fill="#1d6b99"></circle><circle cx="202.94037686619032" cy="100.08310294753863" r="2.5" stroke="none" stroke-width="0" fill="#1d6b99"></circle><circle cx="204.16056987144256" cy="99.48114590844717" r="2.5" stroke="none" stroke-width="0" fill="#1d6b99"></circle><circle cx="205.3807450964762" cy="99.93581057073312" r="2.5" stroke="none" stroke-width="0" fill="#1d6b99"></circle><circle cx="206.60093868075066" cy="99.93629905524574" r="2.5" stroke="none" stroke-width="0" fill="#1d6b99"></circle><circle cx="207.82111443679003" cy="99.42454326214485" r="2.5" stroke="none" stroke-width="0" fill="#1d6b99"></circle><circle cx="209.04130636873282" cy="99.97275917803347" r="2.5" stroke="none" stroke-width="0" fill="#1d6b99"></circle><circle cx="210.26148258234096" cy="86.8411590921973" r="2.5" stroke="none" stroke-width="0" fill="#1d6b99"></circle><circle cx="211.48167270378016" cy="99.95138108940645" r="2.5" stroke="none" stroke-width="0" fill="#1d6b99"></circle><circle cx="212.70184961786396" cy="99.94529150882322" r="2.5" stroke="none" stroke-width="0" fill="#1d6b99"></circle><circle cx="213.92203786383607" cy="99.84094560329764" r="2.5" stroke="none" stroke-width="0" fill="#1d6b99"></circle><circle cx="215.14221539648506" cy="100.06061841438566" r="2.5" stroke="none" stroke-width="0" fill="#1d6b99"></circle><circle cx="216.36240189409256" cy="80.414432757139" r="2.5" stroke="none" stroke-width="0" fill="#1d6b99"></circle><circle cx="217.58257981934685" cy="97.25045337906343" r="2.5" stroke="none" stroke-width="0" fill="#1d6b99"></circle><circle cx="218.80276906236696" cy="97.25478017847396" r="2.5" stroke="none" stroke-width="0" fill="#1d6b99"></circle><circle cx="220.02294599904675" cy="89.07466610028887" r="2.5" stroke="none" stroke-width="0" fill="#1d6b99"></circle><circle cx="221.24313853825674" cy="99.76916875798076" r="2.5" stroke="none" stroke-width="0" fill="#1d6b99"></circle><circle cx="222.4633158562438" cy="99.84371405232245" r="2.5" stroke="none" stroke-width="0" fill="#1d6b99"></circle><circle cx="224.90368402721523" cy="96.2117264152672" r="2.5" stroke="none" stroke-width="0" fill="#1d6b99"></circle><circle cx="226.123873013206" cy="97.25064173987968" r="2.5" stroke="none" stroke-width="0" fill="#1d6b99"></circle><circle cx="227.34405053173248" cy="99.83448109033948" r="2.5" stroke="none" stroke-width="0" fill="#1d6b99"></circle><circle cx="228.5642386506022" cy="97.07717846391355" r="2.5" stroke="none" stroke-width="0" fill="#1d6b99"></circle><circle cx="229.78441518055416" cy="97.05256589814745" r="2.5" stroke="none" stroke-width="0" fill="#1d6b99"></circle><circle cx="231.0046038134826" cy="96.73337337861133" r="2.5" stroke="none" stroke-width="0" fill="#1d6b99"></circle><circle cx="232.22477774772037" cy="97.37183776194547" r="2.5" stroke="none" stroke-width="0" fill="#1d6b99"></circle><circle cx="233.4449647791581" cy="97.23622654757794" r="2.5" stroke="none" stroke-width="0" fill="#1d6b99"></circle><circle cx="234.66514237112156" cy="101.43140048686183" r="2.5" stroke="none" stroke-width="0" fill="#1d6b99"></circle><circle cx="235.8853277897706" cy="100.65541919909326" r="2.5" stroke="none" stroke-width="0" fill="#1d6b99"></circle><circle cx="237.10550607656072" cy="96.96506311832177" r="2.5" stroke="none" stroke-width="0" fill="#1d6b99"></circle><circle cx="238.32568626423836" cy="96.9674467874996" r="2.5" stroke="none" stroke-width="0" fill="#1d6b99"></circle><circle cx="239.54586720323263" cy="96.39228728117185" r="2.5" stroke="none" stroke-width="0" fill="#1d6b99"></circle><circle cx="240.7660504046503" cy="97.34731840760641" r="2.5" stroke="none" stroke-width="0" fill="#1d6b99"></circle><circle cx="241.98621936212155" cy="97.37438379484529" r="2.5" stroke="none" stroke-width="0" fill="#1d6b99"></circle><circle cx="244.42660225437962" cy="97.27311206422216" r="2.5" stroke="none" stroke-width="0" fill="#1d6b99"></circle><circle cx="245.64679235322282" cy="97.53880462637451" r="2.5" stroke="none" stroke-width="0" fill="#1d6b99"></circle><circle cx="246.8669724618145" cy="97.71921129665633" r="2.5" stroke="none" stroke-width="0" fill="#1d6b99"></circle><circle cx="248.0871603575488" cy="103.41110179375534" r="2.5" stroke="none" stroke-width="0" fill="#1d6b99"></circle><circle cx="249.3073408982888" cy="107.55516298020754" r="2.5" stroke="none" stroke-width="0" fill="#1d6b99"></circle><circle cx="250.52752648358324" cy="95.77194362350563" r="2.5" stroke="none" stroke-width="0" fill="#1d6b99"></circle><circle cx="251.74770752708397" cy="96.72569128857322" r="2.5" stroke="none" stroke-width="0" fill="#1d6b99"></circle><circle cx="252.96789084430608" cy="96.53096884467445" r="2.5" stroke="none" stroke-width="0" fill="#1d6b99"></circle><circle cx="254.18807214483616" cy="96.94384605602094" r="2.5" stroke="none" stroke-width="0" fill="#1d6b99"></circle><circle cx="255.4082547813541" cy="96.68378839759156" r="2.5" stroke="none" stroke-width="0" fill="#1d6b99"></circle><circle cx="256.6284350735382" cy="97.53302852330218" r="2.5" stroke="none" stroke-width="0" fill="#1d6b99"></circle><circle cx="257.8486240736514" cy="97.62096014042494" r="2.5" stroke="none" stroke-width="0" fill="#1d6b99"></circle><circle cx="259.06880498440074" cy="97.99607205454627" r="2.5" stroke="none" stroke-width="0" fill="#1d6b99"></circle><circle cx="260.28899146506126" cy="97.37241753040111" r="2.5" stroke="none" stroke-width="0" fill="#1d6b99"></circle><circle cx="261.5091732768256" cy="97.86846852494119" r="2.5" stroke="none" stroke-width="0" fill="#1d6b99"></circle><circle cx="262.72935707421243" cy="97.89209874785676" r="2.5" stroke="none" stroke-width="0" fill="#1d6b99"></circle><circle cx="263.94953976722036" cy="100.59812887939285" r="2.5" stroke="none" stroke-width="0" fill="#1d6b99"></circle><circle cx="265.1697207457576" cy="97.55223554734933" r="2.5" stroke="none" stroke-width="0" fill="#1d6b99"></circle><circle cx="266.389904404744" cy="99.02164015009511" r="2.5" stroke="none" stroke-width="0" fill="#1d6b99"></circle><circle cx="267.6100825022927" cy="97.12757003182062" r="2.5" stroke="none" stroke-width="0" fill="#1d6b99"></circle><circle cx="268.83026718092316" cy="94.59290287298553" r="2.5" stroke="none" stroke-width="0" fill="#1d6b99"></circle><circle cx="270.0504426149697" cy="97.24195542532794" r="2.5" stroke="none" stroke-width="0" fill="#1d6b99"></circle><circle cx="271.2706140156322" cy="97.85236310151117" r="2.5" stroke="none" stroke-width="0" fill="#1d6b99"></circle><circle cx="272.49081492100703" cy="97.0981828160426" r="2.5" stroke="none" stroke-width="0" fill="#1d6b99"></circle><circle cx="273.7109966791059" cy="96.95733991502689" r="2.5" stroke="none" stroke-width="0" fill="#1d6b99"></circle><circle cx="274.9311876422457" cy="100.00801258263735" r="2.5" stroke="none" stroke-width="0" fill="#1d6b99"></circle><circle cx="276.1513702335716" cy="98.44085101522018" r="2.5" stroke="none" stroke-width="0" fill="#1d6b99"></circle><circle cx="277.3715586772587" cy="67.64631967115801" r="2.5" stroke="none" stroke-width="0" fill="#1d6b99"></circle><circle cx="278.59174174874937" cy="96.97191702591729" r="2.5" stroke="none" stroke-width="0" fill="#1d6b99"></circle><circle cx="279.81192783680456" cy="99.79495726374172" r="2.5" stroke="none" stroke-width="0" fill="#1d6b99"></circle><circle cx="281.03211142235403" cy="94.03448192722132" r="2.5" stroke="none" stroke-width="0" fill="#1d6b99"></circle><circle cx="282.25229525081033" cy="99.66781504016105" r="2.5" stroke="none" stroke-width="0" fill="#1d6b99"></circle><circle cx="283.4724792854551" cy="99.89919051150997" r="2.5" stroke="none" stroke-width="0" fill="#1d6b99"></circle><circle cx="284.69266114806044" cy="99.73942732739104" r="2.5" stroke="none" stroke-width="0" fill="#1d6b99"></circle><circle cx="285.91284552729394" cy="100.06478072671824" r="2.5" stroke="none" stroke-width="0" fill="#1d6b99"></circle><circle cx="287.13302948285275" cy="99.7546040020812" r="2.5" stroke="none" stroke-width="0" fill="#1d6b99"></circle><circle cx="288.35321232838356" cy="96.67882873436459" r="2.5" stroke="none" stroke-width="0" fill="#1d6b99"></circle><circle cx="289.57339963379764" cy="93.74254961558962" r="2.5" stroke="none" stroke-width="0" fill="#1d6b99"></circle><circle cx="290.7935815331215" cy="100.06350603036168" r="2.5" stroke="none" stroke-width="0" fill="#1d6b99"></circle><circle cx="292.01376881593956" cy="100.2631964505339" r="2.5" stroke="none" stroke-width="0" fill="#1d6b99"></circle><circle cx="293.23394920133217" cy="96.61707547224532" r="2.5" stroke="none" stroke-width="0" fill="#1d6b99"></circle><circle cx="294.45413646437873" cy="104.40949439522394" r="2.5" stroke="none" stroke-width="0" fill="#1d6b99"></circle><circle cx="295.674315460118" cy="100.09113189697096" r="2.5" stroke="none" stroke-width="0" fill="#1d6b99"></circle><circle cx="296.89450247460877" cy="99.80863107987291" r="2.5" stroke="none" stroke-width="0" fill="#1d6b99"></circle><circle cx="298.1146800355027" cy="99.78103642448852" r="2.5" stroke="none" stroke-width="0" fill="#1d6b99"></circle><circle cx="299.33486767138317" cy="108.68718650809645" r="2.5" stroke="none" stroke-width="0" fill="#1d6b99"></circle><circle cx="300.5550431195522" cy="100.09648552424433" r="2.5" stroke="none" stroke-width="0" fill="#1d6b99"></circle><circle cx="301.77523336244485" cy="90.73938898400056" r="2.5" stroke="none" stroke-width="0" fill="#1d6b99"></circle><circle cx="302.9954048732628" cy="129.4971630725905" r="2.5" stroke="none" stroke-width="0" fill="#1d6b99"></circle><circle cx="304.21559744354226" cy="108.44415988874366" r="2.5" stroke="none" stroke-width="0" fill="#1d6b99"></circle><circle cx="305.43576740371054" cy="99.88206505707925" r="2.5" stroke="none" stroke-width="0" fill="#1d6b99"></circle><circle cx="306.655961911596" cy="99.88119887862413" r="2.5" stroke="none" stroke-width="0" fill="#1d6b99"></circle><circle cx="307.8761329083553" cy="96.66538481766241" r="2.5" stroke="none" stroke-width="0" fill="#1d6b99"></circle><circle cx="309.0963353135388" cy="99.95368185719312" r="2.5" stroke="none" stroke-width="0" fill="#1d6b99"></circle><circle cx="310.3165066492379" cy="97.53896331267448" r="2.5" stroke="none" stroke-width="0" fill="#1d6b99"></circle><circle cx="311.53670676940214" cy="97.51926665014246" r="2.5" stroke="none" stroke-width="0" fill="#1d6b99"></circle><circle cx="312.75687871236835" cy="99.76563119515922" r="2.5" stroke="none" stroke-width="0" fill="#1d6b99"></circle><circle cx="313.97707607582197" cy="99.8506053951525" r="2.5" stroke="none" stroke-width="0" fill="#1d6b99"></circle><circle cx="315.1972429262173" cy="99.47673470561548" r="2.5" stroke="none" stroke-width="0" fill="#1d6b99"></circle><circle cx="316.41744296164654" cy="96.61046342349316" r="2.5" stroke="none" stroke-width="0" fill="#1d6b99"></circle><circle cx="317.6376155090555" cy="96.42154100533033" r="2.5" stroke="none" stroke-width="0" fill="#1d6b99"></circle><circle cx="318.8578073251938" cy="99.75485947558671" r="2.5" stroke="none" stroke-width="0" fill="#1d6b99"></circle><circle cx="320.07797995451324" cy="96.61049984040082" r="2.5" stroke="none" stroke-width="0" fill="#1d6b99"></circle><circle cx="321.2981685253027" cy="96.94040574706275" r="2.5" stroke="none" stroke-width="0" fill="#1d6b99"></circle><circle cx="322.51834099927476" cy="99.42915986196991" r="2.5" stroke="none" stroke-width="0" fill="#1d6b99"></circle><circle cx="323.73852843744027" cy="89.31330327641354" r="2.5" stroke="none" stroke-width="0" fill="#1d6b99"></circle><circle cx="324.95869970252687" cy="96.8744245979153" r="2.5" stroke="none" stroke-width="0" fill="#1d6b99"></circle><circle cx="326.17889427255136" cy="96.85452579684379" r="2.5" stroke="none" stroke-width="0" fill="#1d6b99"></circle><circle cx="327.3990648512848" cy="99.9121847067751" r="2.5" stroke="none" stroke-width="0" fill="#1d6b99"></circle><circle cx="328.6192580994439" cy="96.95326567321005" r="2.5" stroke="none" stroke-width="0" fill="#1d6b99"></circle><circle cx="329.83942781105634" cy="100.1235942061478" r="2.5" stroke="none" stroke-width="0" fill="#1d6b99"></circle><circle cx="331.0596308376296" cy="96.61473095233774" r="2.5" stroke="none" stroke-width="0" fill="#1d6b99"></circle><circle cx="332.27979859186445" cy="97.07185201237048" r="2.5" stroke="none" stroke-width="0" fill="#1d6b99"></circle><circle cx="333.5" cy="99.80944365783327" r="2.5" stroke="none" stroke-width="0" fill="#1d6b99"></circle></g><g><g><text text-anchor="middle" x="155.49172318727761" y="176.68333333333334" font-family="Arial" font-size="11" stroke="none" stroke-width="0" fill="#444444">2020-Jan</text></g><g><text text-anchor="middle" x="244.8091473835204" y="176.68333333333334" font-family="Arial" font-size="11" stroke="none" stroke-width="0" fill="#444444">2021-Jan</text></g><g><text text-anchor="middle" x="88.38163670102962" y="176.68333333333334" font-family="Arial" font-size="11" stroke="none" stroke-width="0" fill="#444444">2019-Apr</text></g><g><text text-anchor="middle" x="311.4311605135048" y="176.68333333333334" font-family="Arial" font-size="11" stroke="none" stroke-width="0" fill="#444444">2021-Oct</text></g><g><text text-anchor="end" x="58.33333333333334" y="165.35" font-family="Arial" font-size="11" stroke="none" stroke-width="0" fill="#444444">-50</text></g><g><text text-anchor="end" x="58.33333333333334" y="103.85" font-family="Arial" font-size="11" stroke="none" stroke-width="0" fill="#444444">0</text></g><g><text text-anchor="end" x="58.33333333333334" y="42.35" font-family="Arial" font-size="11" stroke="none" stroke-width="0" fill="#444444">50</text></g></g></g><g><g><text text-anchor="middle" x="200.5" y="193.01666666666668" font-family="Arial" font-size="11" font-weight="bold" stroke="none" stroke-width="0" fill="#222222">Date</text><rect x="67" y="183.66666666666669" width="267" height="11" stroke="none" stroke-width="0" fill-opacity="0" fill="#ffffff"></rect></g><g><text text-anchor="middle" x="18.01666666666667" y="100" font-family="Arial" font-size="11" font-weight="bold" transform="rotate(-90 18.01666666666667 100)" stroke="none" stroke-width="0" fill="#222222">Mangrove Vegetation</text><text text-anchor="middle" x="32.01666666666667" y="100" font-family="Arial" font-size="11" font-weight="bold" transform="rotate(-90 32.01666666666667 100)" stroke="none" stroke-width="0" fill="#222222">index</text><path d="M8.666666666666664,162L8.666666666666673,38L33.66666666666668,38L33.66666666666667,162Z" stroke="none" stroke-width="0" fill-opacity="0" fill="#ffffff"></path></g></g><g></g></svg>